<svg xmlns="http://www.w3.org/2000/svg" version="1.1" xmlns:xlink="http://www.w3.org/1999/xlink" xmlns:svgjs="http://svgjs.dev/svgjs" width="1500" height="1500" viewBox="0 0 1500 1500"><rect width="1500" height="1500" fill="#000000"></rect><g transform="matrix(0.6666666666666666,0,0,0.6666666666666666,249.78425655976667,249.78425655976673)"><svg viewBox="0 0 343 343" data-background-color="#ffffff" preserveAspectRatio="xMidYMid meet" height="1500" width="1500" xmlns="http://www.w3.org/2000/svg" xmlns:xlink="http://www.w3.org/1999/xlink"><g id="tight-bounds" transform="matrix(1,0,0,1,0.0740000000000407,0.07400000000001228)"><svg viewBox="0 0 342.85155851775386 342.85155851775386" height="342.85155851775386" width="342.85155851775386"><g><svg></svg></g><g><svg viewBox="0 0 342.85155851775386 342.85155851775386" height="342.85155851775386" width="342.85155851775386"><g><path d="M0 171.426c0-94.676 76.75-171.426 171.426-171.426 94.676 0 171.426 76.75 171.426 171.426 0 94.676-76.75 171.426-171.426 171.426-94.676 0-171.426-76.75-171.426-171.426zM171.426 339.66c92.913 0 168.235-75.321 168.234-168.234 0-92.913-75.321-168.235-168.234-168.235-92.913 0-168.235 75.321-168.235 168.235 0 92.913 75.321 168.235 168.235 168.234z" data-fill-palette-color="tertiary" fill="#ffffff" stroke="transparent"></path><ellipse rx="164.56874808852186" ry="164.56874808852186" cx="171.42577925887693" cy="171.42577925887693" fill="#ffffff" stroke="transparent" stroke-width="0" fill-opacity="1" data-fill-palette-color="tertiary"></ellipse></g><g transform="matrix(1,0,0,1,64.84655864529837,125.10376430394548)"><svg viewBox="0 0 213.1584412271571 92.6440299098629" height="92.6440299098629" width="213.1584412271571"><g><svg viewBox="0 0 213.1584412271571 92.6440299098629" height="92.6440299098629" width="213.1584412271571"><g><svg viewBox="0 0 213.1584412271571 92.6440299098629" height="92.6440299098629" width="213.1584412271571"><g transform="matrix(1,0,0,1,0,57.25772717844376)"><svg viewBox="0 0 213.1584412271571 35.386302731419136" height="35.386302731419136" width="213.1584412271571"><g id="textblocktransform"><svg viewBox="0 0 213.1584412271571 35.386302731419136" height="35.386302731419136" width="213.1584412271571" id="textblock"><g><svg viewBox="0 0 213.1584412271571 35.386302731419136" height="35.386302731419136" width="213.1584412271571"><g transform="matrix(1,0,0,1,0,0)"><svg width="213.1584412271571" viewBox="0.45 -33 266.22 44.2" height="35.386302731419136" data-palette-color="#ffffff"><path d="M14.9-0.5L14.9-0.5 15.15-0.5 15.15 0 8.05 0 8.05-0.5 8.3-0.5Q8.7-0.5 9-0.8 9.3-1.1 9.53-1.5 9.75-1.9 9.85-2.38 9.95-2.85 9.95-3.25L9.95-3.25 9.95-31.15 4.15-31.15Q3.35-31.15 2.75-30.8 2.15-30.45 1.75-29.93 1.35-29.4 1.15-28.78 0.95-28.15 0.95-27.55L0.95-27.55 0.45-27.55 0.45-33 22.9-33 22.9-27.55 22.4-27.55Q22.4-28.15 22.2-28.78 22-29.4 21.6-29.93 21.2-30.45 20.6-30.8 20-31.15 19.2-31.15L19.2-31.15 13.3-31.15 13.3-3.25Q13.3-2.85 13.4-2.38 13.5-1.9 13.73-1.5 13.95-1.1 14.23-0.8 14.5-0.5 14.9-0.5ZM36.5-20.4L35-17.35Q34.4-18.35 33.75-18.6 33.1-18.85 32.25-18.85L32.25-18.85Q31.7-18.85 31.07-18.6 30.45-18.35 29.85-17.95 29.25-17.55 28.67-17.07 28.1-16.6 27.7-16.2L27.7-16.2 27.7-3.2Q27.7-2.8 27.8-2.35 27.9-1.9 28.12-1.48 28.35-1.05 28.62-0.78 28.9-0.5 29.3-0.5L29.3-0.5 29.3 0 22.8 0 22.8-0.5Q23.15-0.5 23.45-0.78 23.75-1.05 23.97-1.48 24.2-1.9 24.3-2.35 24.4-2.8 24.4-3.2L24.4-3.2 24.4-17.15Q24.4-17.85 23.95-18.55 23.5-19.25 22.65-19.45L22.65-19.45 22.65-19.85 27.7-21.35 27.7-18.35Q28.15-18.9 28.65-19.43 29.15-19.95 29.77-20.38 30.4-20.8 31.15-21.08 31.9-21.35 32.9-21.35L32.9-21.35Q33.6-21.35 34.7-21.05 35.8-20.75 36.5-20.4L36.5-20.4ZM46.85 0L40.35 0 40.35-0.5Q40.75-0.5 41.05-0.8 41.35-1.1 41.55-1.5 41.75-1.9 41.85-2.38 41.95-2.85 41.95-3.25L41.95-3.25 41.95-17.1Q41.95-17.95 41.7-18.73 41.45-19.5 40.25-19.55L40.25-19.55 40.25-20 45.25-21.6 45.25-3.25Q45.25-2.85 45.35-2.38 45.45-1.9 45.65-1.5 45.85-1.1 46.15-0.8 46.45-0.5 46.85-0.5L46.85-0.5 46.85 0ZM40.6-26.4L40.6-26.4Q40.6-27.4 41.27-28.1 41.95-28.8 42.95-28.8L42.95-28.8Q43.95-28.8 44.65-28.1 45.35-27.4 45.35-26.4L45.35-26.4Q45.35-25.4 44.65-24.75 43.95-24.1 42.95-24.1L42.95-24.1Q41.95-24.1 41.27-24.75 40.6-25.4 40.6-26.4ZM62.84-21.35L62.84-21.35Q65.54-21.35 67.52-20.43 69.49-19.5 70.82-18 72.14-16.5 72.79-14.55 73.44-12.6 73.44-10.55L73.44-10.55Q73.44-8.55 72.82-6.6 72.19-4.65 70.92-3.1 69.64-1.55 67.74-0.6 65.84 0.35 63.24 0.35L63.24 0.35Q61.69 0.35 60.07-0.48 58.44-1.3 57.14-2.55L57.14-2.55 57.14 7.25Q57.14 7.65 57.24 8.13 57.34 8.6 57.57 9 57.79 9.4 58.07 9.7 58.34 10 58.74 10L58.74 10 58.74 10.5 52.24 10.5 52.24 10Q52.59 10 52.89 9.7 53.19 9.4 53.42 9 53.64 8.6 53.74 8.13 53.84 7.65 53.84 7.25L53.84 7.25 53.84-18.05Q53.84-18.5 53.82-18.93 53.79-19.35 53.64-19.68 53.49-20 53.17-20.23 52.84-20.45 52.24-20.5L52.24-20.5 52.24-21 57.14-21 57.14-18.8Q58.14-20 59.57-20.68 60.99-21.35 62.84-21.35ZM63.29-1.35L63.29-1.35Q65.04-1.4 66.34-2.15 67.64-2.9 68.49-4.1 69.34-5.3 69.74-6.78 70.14-8.25 70.14-9.85L70.14-9.85Q70.14-11.65 69.64-13.4 69.14-15.15 68.19-16.53 67.24-17.9 65.87-18.78 64.49-19.65 62.74-19.65L62.74-19.65Q61.69-19.65 60.67-19.25 59.64-18.85 58.87-18.1 58.09-17.35 57.62-16.32 57.14-15.3 57.14-14.05L57.14-14.05 57.14-7.5Q57.14-6.15 57.69-5.03 58.24-3.9 59.12-3.08 59.99-2.25 61.09-1.8 62.19-1.35 63.29-1.35ZM88.49-10.3L77.14-10.3 77.14-12.8 88.49-12.8 88.49-10.3ZM119.74 0L119.74-0.5 119.99-0.5Q120.34-0.5 120.64-0.8 120.94-1.1 121.16-1.5 121.39-1.9 121.49-2.38 121.59-2.85 121.59-3.25L121.59-3.25 121.59-29.55 108.69 0.55 96.44-28 96.44-3.25Q96.44-2.85 96.54-2.38 96.64-1.9 96.86-1.5 97.09-1.1 97.39-0.8 97.69-0.5 98.09-0.5L98.09-0.5 98.34-0.5 98.34 0 92.89 0 92.89-0.5 93.14-0.5Q93.49-0.5 93.79-0.8 94.09-1.1 94.29-1.5 94.49-1.9 94.59-2.38 94.69-2.85 94.69-3.25L94.69-3.25 94.69-29.9Q94.69-30.25 94.59-30.7 94.49-31.15 94.29-31.55 94.09-31.95 93.79-32.23 93.49-32.5 93.14-32.5L93.14-32.5 92.89-32.5 92.89-33 97.99-33 109.59-5.65 121.19-33 126.84-33 126.84-32.5 126.59-32.5Q126.19-32.5 125.89-32.23 125.59-31.95 125.36-31.55 125.14-31.15 125.04-30.7 124.94-30.25 124.94-29.9L124.94-29.9 124.94-3.25Q124.94-2.85 125.04-2.38 125.14-1.9 125.36-1.5 125.59-1.1 125.89-0.8 126.19-0.5 126.59-0.5L126.59-0.5 126.84-0.5 126.84 0 119.74 0ZM149.74 0L144.89 0 144.89-2.55 144.64-2.3Q143.39-1.05 141.76-0.35 140.14 0.35 137.84 0.35L137.84 0.35Q136.09 0.35 134.84-0.05 133.59-0.45 132.79-1.18 131.99-1.9 131.61-2.85 131.24-3.8 131.24-4.85L131.24-4.85Q131.24-6.55 132.16-7.85 133.09-9.15 134.84-10.15 136.59-11.15 139.11-11.98 141.64-12.8 144.89-13.6L144.89-13.6Q144.79-15.55 144.09-16.75 143.39-17.95 142.44-18.63 141.49-19.3 140.44-19.53 139.39-19.75 138.64-19.75L138.64-19.75Q137.34-19.75 136.36-19.35 135.39-18.95 134.66-18.32 133.94-17.7 133.44-16.98 132.94-16.25 132.64-15.6L132.64-15.6 132.19-15.6 132.19-19.25Q132.59-19.3 132.94-19.5 133.29-19.7 133.79-19.9L133.79-19.9Q134.54-20.2 135.84-20.78 137.14-21.35 139.49-21.35L139.49-21.35Q142.24-21.35 143.94-20.65 145.64-19.95 146.56-18.8 147.49-17.65 147.79-16.18 148.09-14.7 148.09-13.15L148.09-13.15 148.09-3.25Q148.09-2.25 148.54-1.38 148.99-0.5 149.74-0.5L149.74-0.5 149.74 0ZM144.34-4.15L144.89-4.75 144.89-11.9 144.39-11.8Q143.19-11.5 141.46-11 139.74-10.5 138.19-9.7 136.64-8.9 135.54-7.8 134.44-6.7 134.44-5.25L134.44-5.25Q134.44-3.65 135.74-2.6 137.04-1.55 139.14-1.55L139.14-1.55Q140.79-1.55 142.04-2.27 143.29-3 144.34-4.15L144.34-4.15ZM174.63-12.9L174.63-3.25Q174.63-2.85 174.73-2.38 174.83-1.9 175.06-1.5 175.28-1.1 175.56-0.8 175.83-0.5 176.23-0.5L176.23-0.5 176.23 0 169.78 0 169.78-0.5Q170.13-0.5 170.43-0.8 170.73-1.1 170.96-1.5 171.18-1.9 171.28-2.38 171.38-2.85 171.38-3.25L171.38-3.25 171.38-12.55Q171.38-14.35 170.88-15.7 170.38-17.05 169.53-17.95 168.68-18.85 167.61-19.28 166.53-19.7 165.43-19.7L165.43-19.7Q164.33-19.7 163.26-19.25 162.18-18.8 161.36-18.07 160.53-17.35 160.01-16.38 159.48-15.4 159.48-14.35L159.48-14.35 159.48-3.25Q159.48-2.85 159.58-2.38 159.68-1.9 159.91-1.5 160.13-1.1 160.41-0.8 160.68-0.5 161.08-0.5L161.08-0.5 161.08 0 154.58 0 154.58-0.5Q154.93-0.5 155.23-0.8 155.53-1.1 155.76-1.5 155.98-1.9 156.08-2.38 156.18-2.85 156.18-3.25L156.18-3.25 156.18-17.05Q156.18-17.9 155.93-18.68 155.68-19.45 154.48-19.5L154.48-19.5 154.48-19.95 159.48-21.55 159.48-18.8Q159.83-19.2 160.38-19.68 160.93-20.15 161.71-20.58 162.48-21 163.51-21.28 164.53-21.55 165.93-21.55L165.93-21.55Q168.28-21.55 169.93-20.75 171.58-19.95 172.63-18.68 173.68-17.4 174.16-15.88 174.63-14.35 174.63-12.9L174.63-12.9ZM199.18 0L194.33 0 194.33-2.55 194.08-2.3Q192.83-1.05 191.21-0.35 189.58 0.35 187.28 0.35L187.28 0.35Q185.53 0.35 184.28-0.05 183.03-0.45 182.23-1.18 181.43-1.9 181.06-2.85 180.68-3.8 180.68-4.85L180.68-4.85Q180.68-6.55 181.61-7.85 182.53-9.15 184.28-10.15 186.03-11.15 188.56-11.98 191.08-12.8 194.33-13.6L194.33-13.6Q194.23-15.55 193.53-16.75 192.83-17.95 191.88-18.63 190.93-19.3 189.88-19.53 188.83-19.75 188.08-19.75L188.08-19.75Q186.78-19.75 185.81-19.35 184.83-18.95 184.11-18.32 183.38-17.7 182.88-16.98 182.38-16.25 182.08-15.6L182.08-15.6 181.63-15.6 181.63-19.25Q182.03-19.3 182.38-19.5 182.73-19.7 183.23-19.9L183.23-19.9Q183.98-20.2 185.28-20.78 186.58-21.35 188.93-21.35L188.93-21.35Q191.68-21.35 193.38-20.65 195.08-19.95 196.01-18.8 196.93-17.65 197.23-16.18 197.53-14.7 197.53-13.15L197.53-13.15 197.53-3.25Q197.53-2.25 197.98-1.38 198.43-0.5 199.18-0.5L199.18-0.5 199.18 0ZM193.78-4.15L194.33-4.75 194.33-11.9 193.83-11.8Q192.63-11.5 190.91-11 189.18-10.5 187.63-9.7 186.08-8.9 184.98-7.8 183.88-6.7 183.88-5.25L183.88-5.25Q183.88-3.65 185.18-2.6 186.48-1.55 188.58-1.55L188.58-1.55Q190.23-1.55 191.48-2.27 192.73-3 193.78-4.15L193.78-4.15ZM214.38 9.3L214.38 9.3Q215.88 9.3 217.23 9.03 218.58 8.75 219.6 8.25 220.63 7.75 221.23 7.05 221.83 6.35 221.83 5.55L221.83 5.55Q221.83 4.7 221 4.1 220.18 3.5 218.78 3.05 217.38 2.6 215.53 2.27 213.68 1.95 211.68 1.6L211.68 1.6 209.13 1.15Q207.98 2.05 207.53 3.05 207.08 4.05 207.08 4.8L207.08 4.8Q207.08 5.85 207.65 6.68 208.23 7.5 209.2 8.1 210.18 8.7 211.5 9 212.83 9.3 214.38 9.3ZM210.88-1.7L217.13-0.7Q219.13-0.4 220.45 0.1 221.78 0.6 222.58 1.28 223.38 1.95 223.68 2.78 223.98 3.6 223.98 4.55L223.98 4.55Q223.98 6.25 223.05 7.5 222.13 8.75 220.65 9.58 219.18 10.4 217.3 10.8 215.43 11.2 213.48 11.2L213.48 11.2Q211.58 11.2 209.83 10.83 208.08 10.45 206.73 9.7 205.38 8.95 204.58 7.83 203.78 6.7 203.78 5.25L203.78 5.25Q203.78 3.95 204.58 2.78 205.38 1.6 207.18 0.45L207.18 0.45Q205.43-0.45 204.5-1.98 203.58-3.5 203.58-5.1L203.58-5.1Q203.58-6.05 204.03-6.98 204.48-7.9 205.48-8.7L205.48-8.7Q204.63-9.7 204.28-10.7 203.93-11.7 203.93-12.85L203.93-12.85Q203.93-14.65 204.68-16.2 205.43-17.75 206.73-18.9 208.03-20.05 209.78-20.7 211.53-21.35 213.53-21.35L213.53-21.35Q215.63-21.35 217.53-20.63 219.43-19.9 220.73-18.75L220.73-18.75 224.33-18.75 224.33-16.95 222.03-16.95Q222.38-16.2 222.73-15.18 223.08-14.15 223.08-13.05L223.08-13.05Q223.08-11.45 222.33-10.03 221.58-8.6 220.25-7.53 218.93-6.45 217.15-5.83 215.38-5.2 213.38-5.2L213.38-5.2Q211.53-5.2 209.78-5.75 208.03-6.3 206.68-7.35L206.68-7.35Q206.13-7 205.93-6.48 205.73-5.95 205.73-5.4L205.73-5.4Q205.73-3.8 207.18-2.93 208.63-2.05 210.88-1.7L210.88-1.7ZM212.93-19.6L212.93-19.6Q211.73-19.6 210.68-19.18 209.63-18.75 208.83-18 208.03-17.25 207.55-16.18 207.08-15.1 207.08-13.75L207.08-13.75Q207.08-12.1 207.75-10.8 208.43-9.5 209.48-8.65 210.53-7.8 211.8-7.35 213.08-6.9 214.23-6.9L214.23-6.9Q215.48-6.9 216.5-7.38 217.53-7.85 218.28-8.68 219.03-9.5 219.43-10.6 219.83-11.7 219.83-12.9L219.83-12.9Q219.83-14.4 219.23-15.65 218.63-16.9 217.65-17.78 216.68-18.65 215.43-19.13 214.18-19.6 212.93-19.6ZM248.83-10.1L231.48-10.1Q231.68-8.35 232.33-6.78 232.98-5.2 234.05-4 235.13-2.8 236.68-2.08 238.23-1.35 240.28-1.35L240.28-1.35Q241.38-1.35 242.6-1.68 243.83-2 244.88-2.6 245.93-3.2 246.75-4.08 247.58-4.95 247.88-6.05L247.88-6.05 248.33-6.05 248.33-2.3Q248.03-2.3 247.65-2.1 247.28-1.9 246.78-1.6L246.78-1.6Q245.78-1 244.08-0.33 242.38 0.35 239.58 0.35L239.58 0.35Q237.33 0.35 235.3-0.3 233.28-0.95 231.73-2.3 230.18-3.65 229.25-5.75 228.33-7.85 228.33-10.75L228.33-10.75Q228.33-12.6 228.95-14.5 229.58-16.4 230.85-17.93 232.13-19.45 234.13-20.4 236.13-21.35 238.93-21.35L238.93-21.35Q241.43-21.35 243.3-20.5 245.18-19.65 246.4-18.15 247.63-16.65 248.23-14.6 248.83-12.55 248.83-10.1L248.83-10.1ZM238.73-19.7L238.73-19.7Q236.98-19.7 235.7-19 234.43-18.3 233.53-17.2 232.63-16.1 232.13-14.7 231.63-13.3 231.48-11.9L231.48-11.9 245.73-11.9Q245.68-13.35 245.2-14.75 244.73-16.15 243.88-17.25 243.03-18.35 241.73-19.03 240.43-19.7 238.73-19.7ZM266.67-20.4L265.17-17.35Q264.57-18.35 263.92-18.6 263.27-18.85 262.42-18.85L262.42-18.85Q261.87-18.85 261.25-18.6 260.62-18.35 260.02-17.95 259.42-17.55 258.85-17.07 258.27-16.6 257.87-16.2L257.87-16.2 257.87-3.2Q257.87-2.8 257.97-2.35 258.07-1.9 258.3-1.48 258.52-1.05 258.8-0.78 259.07-0.5 259.47-0.5L259.47-0.5 259.47 0 252.97 0 252.97-0.5Q253.32-0.5 253.62-0.78 253.92-1.05 254.15-1.48 254.37-1.9 254.47-2.35 254.57-2.8 254.57-3.2L254.57-3.2 254.57-17.15Q254.57-17.85 254.12-18.55 253.67-19.25 252.82-19.45L252.82-19.45 252.82-19.85 257.87-21.35 257.87-18.35Q258.32-18.9 258.82-19.43 259.32-19.95 259.95-20.38 260.57-20.8 261.32-21.08 262.07-21.35 263.07-21.35L263.07-21.35Q263.77-21.35 264.87-21.05 265.97-20.75 266.67-20.4L266.67-20.4Z" opacity="1" transform="matrix(1,0,0,1,0,0)" fill="#000000" class="wordmark-text-0" data-fill-palette-color="quaternary" id="text-0"></path></svg></g></svg></g></svg></g></svg></g><g transform="matrix(1,0,0,1,75.78551223009896,0)"><svg viewBox="0 0 61.58741676695918 48.90387037482125" height="48.90387037482125" width="61.58741676695918"><g><svg xmlns="http://www.w3.org/2000/svg" xmlns:xlink="http://www.w3.org/1999/xlink" version="1.1" x="0" y="0" viewBox="2.635999999999997 11.36 84.727 67.278" enable-background="new 0 0 90 90" xml:space="preserve" height="48.90387037482125" width="61.58741676695918" class="icon-icon-0" data-fill-palette-color="quaternary" id="icon-0"><path d="M65.488 65.37c-0.571 0.471-1.272 0.724-1.988 0.741-0.424 0.009-0.85-0.063-1.255-0.223-0.492-0.195-0.905-0.517-1.24-0.899-3.28 4.264-7.92 7.411-13.282 8.8 2.99-2.082 5.463-5.671 7.121-10.209h5.453c-0.021-0.096-0.063-0.182-0.074-0.279l-0.285-2.165H55.63c0.841-2.991 1.343-6.308 1.438-9.836h1.574l-0.322-2.444h-1.252c-0.045-1.637-0.187-3.225-0.396-4.757-0.779 0.217-1.588 0.431-2.39 0.645 0.174 1.336 0.302 2.7 0.344 4.112h-8.61L45.52 51.3h9.105c-0.104 3.541-0.639 6.884-1.537 9.836H42.795v-5.401l-1.252 0.875c-0.363 0.257-0.772 0.399-1.192 0.486v4.04H30.058c-0.439-1.446-0.79-2.989-1.047-4.6-0.267 0.108-0.542 0.217-0.804 0.329-0.524 0.223-0.992 0.445-1.49 0.668 0.219 1.238 0.477 2.451 0.798 3.603h-7.807v-0.002c-0.703 0.429-1.374 0.857-1.996 1.292-0.491 0.346-0.938 0.686-1.361 1.023 4.805 9.025 14.303 15.189 25.221 15.189 10.239 0 19.208-5.433 24.25-13.549L65.488 65.37zM21.114 63.58h7.188c1.661 4.538 4.13 8.127 7.121 10.209C29.482 72.252 24.412 68.564 21.114 63.58zM40.351 73.266c-3.883-0.645-7.27-4.322-9.421-9.686h9.421V73.266zM42.795 63.58h9.421c-2.149 5.361-5.54 9.041-9.421 9.686V63.58z" fill="#000000" data-fill-palette-color="quaternary"></path><path d="M87.363 24.459c-3.995-2.627-12.348-0.773-21.615 2.803L49.466 11.36l-5.485 0.188L57.07 30.955c-5.385 2.476-10.719 5.232-15.396 7.779l-6.756-5.102-2.806 0.327 6.977 8.789 0.601 11.208 2.317-1.617 1.677-8.297c5.19-1.188 11.015-2.66 16.687-4.372l3.053 23.206 4.232-3.495 1.654-22.695C78.628 33.219 86.111 29.072 87.363 24.459z" fill="#000000" data-fill-palette-color="quaternary"></path><path d="M48.527 24.071l-1.348-1.999c-1.819-0.362-3.688-0.56-5.61-0.56-14.262 0-26.082 10.519-28.192 24.199 1.755-1.324 3.46-2.488 5.021-3.501 0.37-1.097 0.789-2.173 1.308-3.194h3.933c1.418-0.817 2.874-1.633 4.406-2.444h-6.933c3.296-4.984 8.368-8.671 14.31-10.209-1.592 1.11-3.032 2.657-4.287 4.538 0.197-0.063 0.393-0.13 0.604-0.153l2.806-0.327c0.017-0.001 0.037 0 0.052-0.001 1.697-1.917 3.647-3.184 5.752-3.532v6.794l1.615 1.221c0.282-0.151 0.549-0.284 0.829-0.435v-7.58c2.373 0.393 4.56 1.933 6.396 4.285l3.166-1.505L48.527 24.071z" fill="#000000" data-fill-palette-color="quaternary"></path><path d="M35.919 43.951l-4.397-5.538c-2.987 1.531-6.322 3.345-9.807 5.517-3.892 2.446-7.978 5.27-11.725 8.869-1.86 1.813-3.648 3.828-5.098 6.258-0.717 1.217-1.339 2.549-1.767 3.991-0.115 0.353-0.192 0.733-0.28 1.101-0.047 0.183-0.069 0.375-0.104 0.563l-0.102 0.681-0.003 0.832 0.023 1.226c0.107 1.477 0.501 3.049 1.285 4.42 0.766 1.383 1.916 2.446 3.06 3.128 2.327 1.363 4.509 1.586 6.388 1.697 3.773 0.115 6.669-0.5 8.695-0.902 0.631-0.134 1.162-0.256 1.612-0.361-5.88-0.309-9.543-1.719-11.51-2.787-0.562-0.285-1.083-0.605-1.528-0.977-0.205-0.159-0.317-0.263-0.317-0.263l0.038-0.003c-0.121-0.115-0.262-0.223-0.364-0.346-0.886-1.059-0.909-2.021-0.595-3.401 0.054-0.142 0.101-0.271 0.14-0.405l0.239-0.799 0.008-0.023c0.022-0.125-0.022 0.141-0.016 0.106l0.013-0.028 0.022-0.063 0.044-0.121c0.033-0.079 0.051-0.159 0.092-0.242 0.079-0.163 0.133-0.326 0.228-0.491 0.332-0.663 0.786-1.338 1.348-2.008 1.127-1.343 2.652-2.629 4.323-3.804 3.372-2.351 7.309-4.276 11.085-5.885 3.284-1.394 6.455-2.523 9.317-3.473L35.919 43.951z" fill="#000000" data-fill-palette-color="quaternary"></path></svg></g></svg></g><g></g></svg></g></svg></g></svg></g></svg></g><defs></defs></svg><rect width="342.85155851775386" height="342.85155851775386" fill="none" stroke="none" visibility="hidden"></rect></g></svg></g></svg>